<?xml version="1.0" encoding="utf-8"?><!-- Uploaded to: SVG Repo, www.svgrepo.com, Generator: SVG Repo Mixer Tools -->
<svg width="800px" height="800px" viewBox="0 0 400 400" fill="none" xmlns="http://www.w3.org/2000/svg">
<path d="M98.9521 186.05C120.44 234.683 137.022 285.675 137.022 339.598" stroke="#000000" stroke-opacity="0.9" stroke-width="16" stroke-linecap="round" stroke-linejoin="round"/>
<path d="M90.3389 186.513C125.565 168.704 160.2 146.44 196.934 130.677" stroke="#000000" stroke-opacity="0.9" stroke-width="16" stroke-linecap="round" stroke-linejoin="round"/>
<path d="M213.161 132.753C250.565 148.731 295.672 156.717 324.832 186.051" stroke="#000000" stroke-opacity="0.9" stroke-width="16" stroke-linecap="round" stroke-linejoin="round"/>
<path d="M321.025 188.589C274.605 215.315 274.072 301.908 274.072 335.791" stroke="#000000" stroke-opacity="0.9" stroke-width="16" stroke-linecap="round" stroke-linejoin="round"/>
<path d="M135.823 141.636C135.153 125.683 140.036 108.923 137.609 93.4148" stroke="#000000" stroke-opacity="0.9" stroke-width="16" stroke-linecap="round" stroke-linejoin="round"/>
<path d="M114.718 93.2538C147.212 94.9934 291.155 81.924 305.066 86.9644" stroke="#000000" stroke-opacity="0.9" stroke-width="16" stroke-linecap="round" stroke-linejoin="round"/>
<path d="M284.945 103.835C285.209 121.158 286.732 138.651 286.732 155.863" stroke="#000000" stroke-opacity="0.9" stroke-width="16" stroke-linecap="round" stroke-linejoin="round"/>
<path d="M257 113C252.62 113 250.541 113 247 113" stroke="#000000" stroke-opacity="0.9" stroke-width="16" stroke-linecap="round" stroke-linejoin="round"/>
<path d="M216.97 111.862C213.83 112.172 211.08 111.385 208.087 110.969" stroke="#000000" stroke-opacity="0.9" stroke-width="16" stroke-linecap="round" stroke-linejoin="round"/>
<path d="M176.359 109.463C174.851 110.955 172.974 110.062 171.283 110.361" stroke="#000000" stroke-opacity="0.9" stroke-width="16" stroke-linecap="round" stroke-linejoin="round"/>
<path d="M187.473 73.1108C186.594 75.548 188.072 78.1882 188.371 80.7248" stroke="#000000" stroke-opacity="0.9" stroke-width="16" stroke-linecap="round" stroke-linejoin="round"/>
<path d="M192.856 62.7103C218.337 65.6559 243.616 45.3049 243.616 78.1874" stroke="#000000" stroke-opacity="0.9" stroke-width="16" stroke-linecap="round" stroke-linejoin="round"/>
<path d="M215.7 49C215.7 53.23 215.7 57.4599 215.7 61.6899" stroke="#000000" stroke-opacity="0.9" stroke-width="16" stroke-linecap="round" stroke-linejoin="round"/>
<path d="M271.026 185.165C301.827 183.156 245.173 217.815 266.177 183.512" stroke="#000000" stroke-opacity="0.9" stroke-width="16" stroke-linecap="round" stroke-linejoin="round"/>
<path opacity="0.503384" d="M347.674 339.845C320.554 342.49 290.518 339.959 264.591 331.068C260.453 329.65 253.186 317.646 253.186 320.696C253.186 331.091 207.297 341.44 191.282 341.44C175.266 341.44 161.786 318.68 158.702 320.696C142.984 330.959 138.411 345.561 111.458 350.217C92.1752 353.555 67.7973 344.384 52 351.019" stroke="#000000" stroke-opacity="0.9" stroke-width="16" stroke-linecap="round" stroke-linejoin="round"/>
</svg>